<svg xmlns="http://www.w3.org/2000/svg" width="32" height="32" viewBox="0 0 32 32">
  <g id="certificate-medal_2_" data-name="certificate-medal (2)" transform="translate(0.16 0.16)">
    <g id="Grupo_7493" data-name="Grupo 7493" transform="translate(3.96 3.96)">
      <circle id="Elipse_656" data-name="Elipse 656" cx="4.62" cy="4.62" r="4.62" transform="translate(15.18 10.56)" fill="none" stroke="#fcca50" stroke-linecap="round" stroke-linejoin="round" stroke-width="1.5"/>
      <path id="Caminho_42458" data-name="Caminho 42458" d="M16,17.372v6.109l2.64-1.32,2.64,1.32V17.372" transform="translate(1.16 1.599)" fill="none" stroke="#fcca50" stroke-linecap="round" stroke-linejoin="round" stroke-width="1.5"/>
      <path id="Caminho_42459" data-name="Caminho 42459" d="M16.2,26.76H5.64A2.639,2.639,0,0,1,3,24.12V5.64A2.639,2.639,0,0,1,5.64,3H22.8a2.639,2.639,0,0,1,2.64,2.64V9.6" transform="translate(-3 -3)" fill="none" stroke="#fcca50" stroke-linecap="round" stroke-linejoin="round" stroke-width="1.5"/>
      <line id="Linha_51" data-name="Linha 51" x2="12" transform="translate(4.88 4.881)" fill="none" stroke="#fcca50" stroke-linecap="round" stroke-linejoin="round" stroke-width="1.5"/>
      <line id="Linha_52" data-name="Linha 52" x2="6" transform="translate(4.88 10.881)" fill="none" stroke="#fcca50" stroke-linecap="round" stroke-linejoin="round" stroke-width="1.5"/>
      <line id="Linha_53" data-name="Linha 53" x2="4" transform="translate(4.88 15.881)" fill="none" stroke="#fcca50" stroke-linecap="round" stroke-linejoin="round" stroke-width="1.5"/>
    </g>
    <rect id="Retângulo_3563" data-name="Retângulo 3563" width="32" height="32" transform="translate(-0.16 -0.16)" fill="none"/>
  </g>
</svg>
