<svg xmlns="http://www.w3.org/2000/svg" width="33.299" height="25.292" viewBox="0 0 33.299 25.292">
  <g id="logout_1_" data-name="logout (1)" transform="translate(0 -58.95)">
    <g id="Grupo_7494" data-name="Grupo 7494" transform="translate(0 58.95)">
      <path id="Caminho_42460" data-name="Caminho 42460" d="M0,63.168V80.024a4.226,4.226,0,0,0,4.218,4.218H17.841a4.226,4.226,0,0,0,4.218-4.218v-2.73a.835.835,0,0,0-1.671,0v2.73a2.559,2.559,0,0,1-2.554,2.554H4.218a2.559,2.559,0,0,1-2.554-2.554V63.168a2.559,2.559,0,0,1,2.554-2.554H17.841a2.559,2.559,0,0,1,2.554,2.554V65.9a.835.835,0,1,0,1.671,0v-2.73a4.226,4.226,0,0,0-4.218-4.218H4.218A4.222,4.222,0,0,0,0,63.168Z" transform="translate(0 -58.95)" fill="#fcca50"/>
      <path id="Caminho_42461" data-name="Caminho 42461" d="M218.464,161.766a.836.836,0,0,0,1.182,0l5.7-5.7a.828.828,0,0,0,0-1.175l-5.7-5.7a.831.831,0,0,0-1.175,1.175l4.279,4.279H207.135a.835.835,0,1,0,0,1.671h15.607l-4.279,4.279A.82.82,0,0,0,218.464,161.766Z" transform="translate(-192.289 -142.838)" fill="#fcca50"/>
    </g>
  </g>
</svg>
