<svg width="35" height="30" viewBox="0 0 35 30" fill="none" xmlns="http://www.w3.org/2000/svg">
<g clip-path="url(#clip0_949_320)">
<path d="M32 0H3C1.34315 0 0 1.34315 0 3C0 4.65685 1.34315 6 3 6H32C33.6569 6 35 4.65685 35 3C35 1.34315 33.6569 0 32 0Z" fill="#2D2D2D"/>
<path d="M32 12H13C11.3431 12 10 13.3431 10 15C10 16.6569 11.3431 18 13 18H32C33.6569 18 35 16.6569 35 15C35 13.3431 33.6569 12 32 12Z" fill="#2D2D2D"/>
<path d="M32 24H13C11.3431 24 10 25.3431 10 27C10 28.6569 11.3431 30 13 30H32C33.6569 30 35 28.6569 35 27C35 25.3431 33.6569 24 32 24Z" fill="#2D2D2D"/>
</g>
<defs>
<clipPath id="clip0_949_320">
<rect width="35" height="30" fill="white"/>
</clipPath>
</defs>
</svg>
