<svg id="info-loading_2" data-name="info-loading 2" xmlns="http://www.w3.org/2000/svg" width="24" height="24" viewBox="0 0 24 24">
  <path id="Caminho_32422" data-name="Caminho 32422" d="M10.337,3.16A8.985,8.985,0,0,0,5.115,6.209" fill="none" stroke="#FCCA50" stroke-linecap="round" stroke-linejoin="round" stroke-width="1.5"/>
  <path id="Caminho_32423" data-name="Caminho 32423" d="M3.493,9.082a8.871,8.871,0,0,0,.049,5.97" fill="none" stroke="#FCCA50" stroke-linecap="round" stroke-linejoin="round" stroke-width="1.5"/>
  <path id="Caminho_32424" data-name="Caminho 32424" d="M5.212,17.9a8.979,8.979,0,0,0,5.126,2.943" fill="none" stroke="#FCCA50" stroke-linecap="round" stroke-linejoin="round" stroke-width="1.5"/>
  <path id="Caminho_32425" data-name="Caminho 32425" d="M11.1,11.5h1.15v4.25" fill="none" stroke="#FCCA50" stroke-linecap="round" stroke-linejoin="round" stroke-width="1.5"/>
  <line id="Linha_484" data-name="Linha 484" x2="2.309" transform="translate(11.095 15.751)" fill="none" stroke="#FCCA50" stroke-linecap="round" stroke-linejoin="round" stroke-width="1.5"/>
  <path id="Caminho_32426" data-name="Caminho 32426" d="M13.636,3.156a8.993,8.993,0,0,1,0,17.688" fill="none" stroke="#FCCA50" stroke-linecap="round" stroke-linejoin="round" stroke-width="1.5"/>
  <path id="Caminho_32427" data-name="Caminho 32427" d="M12.2,8.5a.25.25,0,1,1-.073-.177A.25.25,0,0,1,12.2,8.5" fill="none" stroke="#FCCA50" stroke-linecap="round" stroke-linejoin="round" stroke-width="1.5"/>
  <path id="Caminho_32428" data-name="Caminho 32428" d="M0,0H24V24H0Z" fill="none"/>
</svg>
